# xmcd CD database file
#
# Track frame offsets:
#	150
#	29123
#	64905
#	92053
#	120698
#	143246
#	166604
#	226749
#	250008
#
# Disc length: 3530 seconds
#
# Revision: 0
# Processed by: cddbd v1.5.2PL0 Copyright (c) Steve Scherf et al.
# Submitted via: CDex 1.51
#
DISCID=720dc809
DTITLE=Various Artist - Jazzmania z Nordea vol. 2
DYEAR=2013
DGENRE=Jazz
TTITLE0=Francesco Bruno Quartet feat. Piotr Wojtasik and Sylwester Ostrowski - My Ayer
TTITLE1=Piotr Wojtasik - Judy Bady  feat. Newman Taylor Baker - Sugar
TTITLE2=Francesco Bruno Quartet feat. Makoto Kuriya - My Japanese Friend
TTITLE3=Piotr Wojtasik - Judy Bady feat. Newman Taylor Baker - Prayer
TTITLE4=Walter Wolff Trio feat. Francesco Angiuli - Second Song
TTITLE5=Francesco Bruno Quartet feat. Piotr Wojtasik and Sylwester Ostrowski - Valona
TTITLE6=Piotr Wojtasik - Old Land
TTITLE7=Judy Bady feat. Newman Taylor Baker - As One
TTITLE8=Sylwester Ostrowski - Piotr Wojtasik Quintet feat. Newman Taylor Baker - When the groove is low
EXTD=YEAR: 2013
EXTT0=
EXTT1=
EXTT2=
EXTT3=
EXTT4=
EXTT5=
EXTT6=
EXTT7=
EXTT8=
PLAYORDER=
